<?xml version="1.0"?>
<svg xmlns="http://www.w3.org/2000/svg" xmlns:xlink="http://www.w3.org/1999/xlink" width="300" height="300" viewBox="0 0 160 160">
			<path fill="#004EA2" d="M80,9.134c39.032,0,70.866,31.834,70.866,70.865c0,39.032-31.834,70.866-70.866,70.866
				c-39.031,0-70.866-31.834-70.866-70.866C9.134,40.968,40.969,9.134,80,9.134L80,9.134z M80,11.958
				c-37.476,0-68.042,30.565-68.042,68.041c0,37.477,30.566,68.042,68.042,68.042c37.477,0,68.043-30.565,68.043-68.042
				C148.043,42.523,117.477,11.958,80,11.958L80,11.958z"/>
			<path fill="#004EA2" d="M55.109,110.202c-4.437-3.664-8.059-8.286-10.545-13.545c-2.393-5.062-3.732-10.711-3.732-16.658
				c0-21.571,17.595-39.166,39.168-39.166c21.572,0,39.167,17.595,39.167,39.166c0,5.947-1.34,11.597-3.732,16.658
				c-2.485,5.259-6.107,9.881-10.545,13.545l-0.898-1.086c4.28-3.536,7.774-7.993,10.17-13.06
				c2.304-4.875,3.594-10.319,3.594-16.058c0-20.794-16.96-37.755-37.755-37.755c-20.796,0-37.756,16.961-37.756,37.755
				c0,5.738,1.29,11.183,3.594,16.058c2.395,5.066,5.889,9.523,10.169,13.06L55.109,110.202L55.109,110.202z"/>
			<path fill-rule="evenodd" clip-rule="evenodd" fill="#004EA2" d="M80.237,116.169l-8.021-12.239
				c2.463-1.268,2.158-5.222,0.048-5.551c-2.349-0.368-4.219-0.481-5.867-4.174h3.821l-1.173-3.203
				c-4.372,0.384-5.264-0.831-7.337-4.246l5.461-0.187l-1.104-2.787c-5.951,0.276-7.521-1.183-9.007-4.574l6.934-0.243l-1.501-3.316
				c-7.101,0.198-8.604-0.003-11.208-4.805l8.821-0.043l-1.244-3.159c-8.04,0.347-10.048-0.44-12.324-4.461l18.072-0.457
				c2.634-0.067,5.641,1.728,6.749,4.117l2.173,4.689l2.287-7.892c1.179-4.066,10.065-2.592,12.925,0.114l-5.375,1.944l2.63,6.404
				c1.906-4.46,4.241-9.378,9.265-9.378h17.729c-1.364,3.917-4.657,5.87-11.815,4.603l-1.258,3.316l8.841-0.027
				c-2.116,4.933-4.464,5.553-11.04,4.805l-1.373,3.316l7.038,0.229c-1.354,3.126-3.805,4.995-9.238,4.345l-1.144,3.229l5.604-0.026
				c-1.606,3.928-2.643,4.805-7.751,4.575l-1.171,3.202l4.037,0.015c-1.697,3.419-2.2,3.825-5.822,4.146
				c-2.153,0.191-3.113,3.638-0.246,5.681L80.237,116.169L80.237,116.169z"/>
			<polygon fill-rule="evenodd" clip-rule="evenodd" fill="#004EA2" points="19.315,103.654 16.643,96.484 18.103,95.976 
				30.351,97.844 28.477,92.815 29.937,92.307 32.383,98.873 30.924,99.382 18.676,97.517 20.774,103.146 19.315,103.654 "/>
			<polygon fill-rule="evenodd" clip-rule="evenodd" fill="#004EA2" points="23.979,113.432 23.241,111.999 29.002,109.036 
				27.175,105.483 21.414,108.445 20.676,107.014 32.991,100.68 33.729,102.113 28.542,104.779 30.37,108.333 35.557,105.665 
				36.293,107.099 23.979,113.432 "/>
			<polygon fill-rule="evenodd" clip-rule="evenodd" fill="#004EA2" points="29.82,121.233 25.445,115.123 36.995,107.95 
				41.157,113.762 39.874,114.559 36.698,110.124 33.116,112.349 36.034,116.423 34.752,117.22 31.834,113.145 27.713,115.705 
				31.103,120.438 29.82,121.233 "/>
			<polygon fill-rule="evenodd" clip-rule="evenodd" fill="#004EA2" points="39.635,130.837 38.169,129.6 46.67,119.156 
				48.137,120.394 39.635,130.837 "/>
			<path fill-rule="evenodd" clip-rule="evenodd" fill="#004EA2" d="M46.219,135.438l1.742-3.703l-2.111-1.529l-3.143,3.06
				l-1.435-1.109l9.965-9.847l1.999,1.219l-5.308,12.871L46.219,135.438L46.219,135.438z M48.765,129.924l2.078-4.772l-0.192-0.157
				l-3.593,3.655L48.765,129.924L48.765,129.924z"/>
			<polygon fill-rule="evenodd" clip-rule="evenodd" fill="#004EA2" points="56.208,140.266 54.408,139.429 55.458,129.82 
				51.522,137.898 49.726,137.072 55.972,124.703 57.594,125.455 56.84,134.584 60.9,127.046 62.411,127.674 56.208,140.266 "/>
			<path fill-rule="evenodd" clip-rule="evenodd" fill="#004EA2" d="M65.508,143.04l-1.161-0.379l0.107-1.088
				c-0.271,0.233-0.632,0.382-1.08,0.449c-0.449,0.069-0.898,0.028-1.354-0.12c-0.96-0.312-1.669-1.065-2.127-2.259
				c-0.46-1.194-0.369-2.837,0.275-4.929c0.705-2.284,1.571-3.875,2.601-4.771c1.028-0.893,2.592-1.392,3.975-0.949
				c1.489,0.475,2.455,2.306,2.027,4.84l-1.778-0.146c0.307-1.085,0.151-2.778-0.909-3.123c-0.859-0.279-1.822-0.015-2.434,0.669
				c-0.613,0.685-1.209,1.974-1.794,3.872c-0.554,1.799-0.708,3.112-0.463,3.942c0.245,0.83,0.667,1.341,1.258,1.534
				c0.593,0.193,1.131,0.115,1.616-0.237c0.483-0.349,0.877-1.013,1.176-1.983l0.248-0.803l-2.12-0.691l0.427-1.385l3.488,1.138
				L65.508,143.04L65.508,143.04z"/>
			<path fill-rule="evenodd" clip-rule="evenodd" fill="#004EA2" d="M83.931,139.989c-0.04,1.247-0.374,2.224-0.998,2.93
				c-0.625,0.706-1.589,1.032-2.89,0.983c-1.3-0.049-2.241-0.447-2.818-1.198c-0.577-0.752-0.848-1.751-0.807-2.998l0.305-9.435
				l1.662,0.062l-0.305,9.435c-0.029,0.884,0.144,1.541,0.516,1.971c0.372,0.431,0.871,0.659,1.496,0.684
				c0.626,0.022,1.138-0.168,1.537-0.569c0.398-0.401,0.613-1.042,0.642-1.927l0.306-9.435l1.661,0.062L83.931,139.989
				L83.931,139.989z"/>
			<polygon fill-rule="evenodd" clip-rule="evenodd" fill="#004EA2" points="93.385,142.508 91.903,142.732 87.231,133.728 
				87.945,143.395 86.184,143.647 85.15,130.092 87.177,129.904 91.03,136.22 90.315,129.422 91.786,129.17 93.385,142.508 "/>
			<polygon fill-rule="evenodd" clip-rule="evenodd" fill="#004EA2" points="98.448,141.088 96.71,141.615 93.097,128.785 
				94.835,128.258 98.448,141.088 "/>
			<polygon fill-rule="evenodd" clip-rule="evenodd" fill="#004EA2" points="103.136,124.829 105.333,138.994 103.619,139.839 
				96.116,127.816 97.767,127.121 102.982,135.319 101.536,125.525 103.136,124.829 "/>
			<polygon fill-rule="evenodd" clip-rule="evenodd" fill="#004EA2" points="117.071,132.858 110.739,136.281 103.845,124.443 
				109.867,121.189 110.633,122.503 106.038,124.986 108.176,128.657 112.397,126.376 113.163,127.69 108.94,129.972 111.4,134.195 
				116.306,131.544 117.071,132.858 "/>
			<path fill-rule="evenodd" clip-rule="evenodd" fill="#004EA2" d="M124.285,127.8l-1.393,1.19l-4.907-4.065l-1.269,1.149
				l3.316,4.51l-1.392,1.458l-8.122-11.402l2.589-1.854c0.828-0.594,1.916-1.018,2.896-0.901c2.529,0.301,3.61,2.005,3.494,3.986
				c-0.036,0.625-0.072,1.234-0.317,1.854L124.285,127.8L124.285,127.8z M115.533,119.768c-1.031-0.281-1.843,0.516-2.585,1.096
				l2.699,3.564c0.825-0.594,1.209-0.723,1.833-1.799C117.75,121.335,117.172,120.216,115.533,119.768L115.533,119.768z"/>
			<path fill-rule="evenodd" clip-rule="evenodd" fill="#004EA2" d="M128.666,116.791c2.831,1.701,2.171,6.527-1.55,7.091
				c-1.001,0.151-2.178-0.151-2.684-0.471l0.636-1.444c0.613,0.137,1.234,0.358,1.822,0.247c2.411-0.459,2.305-2.964,0.899-4.002
				c-0.49-0.362-1.191-0.408-1.771-0.344c-1.627,0.182-2.669,1.396-4.479,1.509c-1.979,0.125-3.357-1.082-3.68-3.008
				c-0.171-1.021,0.073-2.011,0.58-2.806c1.047-1.639,3.269-1.861,4.888-0.906l-0.63,1.489c-0.875-0.465-2.429-0.463-3.014,0.452
				c-0.305,0.479-0.411,0.969-0.319,1.468c0.203,1.087,0.946,1.718,1.993,1.592c1.757-0.214,2.945-1.659,4.674-1.603
				C126.855,116.083,127.832,116.29,128.666,116.791L128.666,116.791z"/>
			<polygon fill-rule="evenodd" clip-rule="evenodd" fill="#004EA2" points="134.638,115.032 133.618,116.283 121.945,108.964 
				122.965,107.713 134.638,115.032 "/>
			<polygon fill-rule="evenodd" clip-rule="evenodd" fill="#004EA2" points="128.746,100.267 127.454,102.661 138.479,109.144 
				137.736,110.521 126.712,104.037 125.42,106.431 124.043,105.621 127.369,99.457 128.746,100.267 "/>
			<polygon fill-rule="evenodd" clip-rule="evenodd" fill="#004EA2" points="130.768,91.16 137.492,97.17 141.982,99.092 
				141.435,100.606 137.275,98.996 127.698,98.774 128.158,97.24 134.841,97.348 130.109,92.994 130.768,91.16 "/>
			<path fill-rule="evenodd" clip-rule="evenodd" fill="#004EA2" d="M38.605,124.806c-1.189,1.184-2.3,1.796-3.33,1.83
				c-1.03,0.035-1.962-0.374-2.801-1.229c-0.764-0.777-1.142-1.683-1.133-2.719c0.004-0.525,0.157-1.065,0.456-1.62l1.514,0.925
				c-0.129,0.263-0.197,0.513-0.203,0.752c-0.015,0.564,0.159,1.034,0.522,1.405c0.511,0.52,1.047,0.754,1.608,0.707
				c0.562-0.047,1.245-0.47,2.052-1.272l6.731-6.664l1.256,1.279L38.605,124.806L38.605,124.806z"/>
			<path fill-rule="evenodd" clip-rule="evenodd" fill="#004EA2" d="M61.508,122.472l-4.719-2.928l0.428-0.741l1.752,1.089
				l2.807-4.886l-1.754-1.089l0.382-0.663c0.664,0.411,1.192,0.645,1.588,0.695c0.393,0.05,0.725-0.105,0.993-0.476l1.006,0.622
				l-3.77,6.569l1.713,1.062L61.508,122.472L61.508,122.472z M75.58,119.489c0.075-0.375-0.055-0.714-0.392-1.021
				c-0.341-0.302-0.855-0.503-1.546-0.599c-0.634-0.087-1.171-0.046-1.62,0.123c-0.451,0.165-0.714,0.439-0.792,0.823
				c-0.057,0.279,0,0.526,0.167,0.746c0.165,0.22,0.439,0.435,0.819,0.645c0.169,0.087,0.423,0.216,0.771,0.38
				c0.345,0.16,0.661,0.298,0.952,0.402c0.556-0.178,0.949-0.393,1.185-0.626C75.358,120.12,75.511,119.828,75.58,119.489
				L75.58,119.489z M74.967,123.716c0.071-0.348,0.021-0.631-0.144-0.864c-0.171-0.233-0.531-0.494-1.086-0.787
				c-0.183-0.096-0.43-0.21-0.739-0.338c-0.311-0.129-0.661-0.279-1.05-0.448c-0.521,0.142-0.942,0.343-1.258,0.608
				c-0.318,0.265-0.515,0.595-0.592,0.979c-0.103,0.508,0.05,0.951,0.455,1.35c0.405,0.394,0.965,0.646,1.679,0.741
				c0.73,0.105,1.343,0.041,1.839-0.179C74.571,124.554,74.869,124.201,74.967,123.716L74.967,123.716z M72.042,125.793
				c-0.643-0.092-1.217-0.233-1.72-0.43c-0.503-0.197-0.915-0.435-1.24-0.723c-0.318-0.274-0.54-0.577-0.666-0.915
				c-0.126-0.334-0.153-0.673-0.085-1.021c0.094-0.453,0.364-0.842,0.817-1.171c0.45-0.329,1.054-0.554,1.813-0.682l0.007-0.032
				c-0.59-0.329-1.008-0.654-1.26-0.983c-0.247-0.329-0.329-0.705-0.242-1.13c0.128-0.636,0.604-1.107,1.423-1.423
				c0.823-0.32,1.8-0.398,2.93-0.242c1.181,0.164,2.084,0.494,2.711,0.997c0.629,0.494,0.88,1.057,0.755,1.674
				c-0.076,0.376-0.32,0.724-0.734,1.043c-0.417,0.32-0.963,0.54-1.645,0.654l-0.005,0.037c0.707,0.334,1.224,0.69,1.546,1.07
				c0.325,0.38,0.432,0.828,0.327,1.336c-0.146,0.718-0.668,1.263-1.571,1.633C74.301,125.857,73.247,125.963,72.042,125.793
				L72.042,125.793z M88.366,120.619c0-0.576-0.08-1.048-0.237-1.409c-0.16-0.361-0.38-0.641-0.661-0.837
				c-0.247-0.184-0.501-0.312-0.757-0.38c-0.257-0.064-0.538-0.101-0.847-0.101c-0.7,0-1.258,0.169-1.672,0.503
				c-0.419,0.334-0.625,0.814-0.625,1.45c0,0.361,0.066,0.649,0.204,0.883c0.137,0.233,0.358,0.435,0.67,0.6
				c0.213,0.114,0.46,0.196,0.732,0.238c0.271,0.041,0.566,0.06,0.878,0.06c0.363,0,0.76-0.046,1.178-0.129
				c0.424-0.087,0.789-0.201,1.103-0.338c0.007-0.06,0.017-0.133,0.023-0.229C88.364,120.839,88.366,120.738,88.366,120.619
				L88.366,120.619z M81.834,119.892c0-0.439,0.107-0.837,0.317-1.194c0.216-0.365,0.506-0.677,0.879-0.938
				c0.35-0.252,0.782-0.443,1.295-0.586c0.51-0.142,1.024-0.21,1.551-0.21c0.585,0,1.116,0.064,1.59,0.196
				c0.476,0.129,0.887,0.32,1.234,0.567c0.439,0.312,0.778,0.719,1.021,1.222c0.24,0.508,0.363,1.144,0.363,1.917
				c0,0.7-0.118,1.368-0.356,1.994c-0.235,0.632-0.581,1.153-1.043,1.564c-0.489,0.439-1.077,0.778-1.764,1.007
				c-0.688,0.233-1.535,0.348-2.544,0.348c-0.226,0-0.469-0.005-0.725-0.022c-0.256-0.019-0.496-0.051-0.719-0.097v-1.089h0.087
				c0.143,0.056,0.364,0.11,0.668,0.156c0.3,0.05,0.608,0.073,0.92,0.073c1.116,0,1.994-0.243,2.631-0.732
				c0.638-0.494,0.999-1.194,1.084-2.104c-0.455,0.206-0.888,0.357-1.3,0.453c-0.416,0.096-0.864,0.142-1.347,0.142
				c-0.474,0-0.901-0.036-1.29-0.105c-0.387-0.068-0.778-0.201-1.169-0.397c-0.458-0.233-0.801-0.526-1.034-0.879
				C81.95,120.82,81.834,120.395,81.834,119.892L81.834,119.892z M100.334,112.641l-0.311,8.747l-1.341,0.847l0.119-8.271
				l-5.11,2.479l-0.45-0.983l6.425-3.335L100.334,112.641L100.334,112.641z"/>
				<path fill-rule="evenodd" clip-rule="evenodd" fill="#004EA2" d="M106.759,45.746c-0.944-0.634-0.2-0.715-0.01-1.664
					c0.163-0.815-0.229-1.838,0.017-2.394c0.665-1.499,2.58-0.625,3.568,0.332c0.176,0.17,0.297,0.589,0.389,0.99
					c0.228,0.998,0.414,2.388-0.771,2.913C108.93,46.377,107.58,46.298,106.759,45.746L106.759,45.746z"/>
				<path fill-rule="evenodd" clip-rule="evenodd" fill="#004EA2" d="M95.636,39.468c-0.028-0.027-0.057-0.055-0.085-0.082
					c0.054-0.112,0.107-0.225,0.156-0.32c0.371,0.006,3.915-0.709,3.94-0.787c1.08-0.323,2.103-0.757,2.756-1.714
					c-2.279-0.147-4.773,0.561-6.922-0.117c-0.873-0.626-1.325-1.415-1.886-1.979c0.017-0.05,0.026-0.084,0.037-0.117
					c-0.814-1.161-0.546-2.129,0.83-2.046c1.914,1.306,5.729,1.089,8.007,1.125c0.522-0.02,1.982,0.035,2.49-0.229
					c1.572-2.586,2.378-5.488,3.6-8.074c1.443-1.648,2.222,0.249,2.92,1.567c0.089,0.168,0.22,0.476,0.315,0.931
					c0.034,0.011,0.297,1.459-0.782,1.894c-1.046,1.092-1.876,2.436-2.413,3.964c1.525,0.37,2.902-0.542,4.583,0.099
					c0.093,0.934-0.22,1.573-1.217,1.924c-1.451,0.096-2.981,0.092-4.611,0.169c-0.882,1.271-2.123,2.763-3.562,3.508
					c-0.21,0.109-1.188,0.487-1.4,0.519c-1.103,0.163-2.16,0.476-3.251,0.357C96.132,39.732,96.149,39.593,95.636,39.468
					L95.636,39.468z"/>
				<path fill-rule="evenodd" clip-rule="evenodd" fill="#004EA2" d="M60.162,44.365c-1.241-0.223-2.595-1.296-3.41-1.973
					c0.023-0.323,0.047-0.646,0.093-0.957c2.097-2.636,4.206-5.127,5.959-8.076c0.428-1.289,1.062-2.684,1.546-3.974
					c0.028-0.027,0.095-0.161,0.084-0.194c0.532-0.694,0.777-0.904,1.565-0.2c0.231,0.702-0.917,1.785-1.079,2.578
					c-0.282,1.39-1.026,4.891-1.544,6.223c-0.331,0.85-1.746,5.571-2.606,6.336C60.552,44.199,60.356,44.282,60.162,44.365
					L60.162,44.365z"/>
				<path fill-rule="evenodd" clip-rule="evenodd" fill="#004EA2" d="M73.17,31.189c-1.626,0.351-2.352-0.56-3.474-1.266
					c-0.138-0.418,0.053-0.74,0.009-1.041c0.379-0.198,1.489-0.712,2.208-0.948c0.87-0.453,2.815-2.706,3.793-2.212
					C76.339,27.646,74.727,30.177,73.17,31.189L73.17,31.189z"/>
				<path fill-rule="evenodd" clip-rule="evenodd" fill="#004EA2" d="M60.006,31.334c-0.756-0.382-1.525-2.833-1.779-3.603
					c0.095-1.514,1.477-1.932,2.877-1.336c1.249,0.979,2.01,1.321,1.413,3C61.667,30.639,61.193,30.832,60.006,31.334L60.006,31.334
					z"/>
				<path fill-rule="evenodd" clip-rule="evenodd" fill="#004EA2" d="M71.611,27.015c-0.365-0.714,0.255-2.604-0.145-2.917
					c-0.374,0.16-0.736,0.409-1.138,0.541c-1.09-0.216-2.461-1.117-2.313-2.13c0.505-1,0.281-0.723,1.385-1.085
					c0.938-0.754,1.881-1.49,2.842-2.232c1.717-0.807,2.805-0.034,3.377,1.705c-0.021,1.229-0.549,2.33-1.06,3.425
					c-0.821,0.771-1.537,1.58-2.258,2.373C72.057,26.794,71.834,26.904,71.611,27.015L71.611,27.015z"/>
				<path fill-rule="evenodd" clip-rule="evenodd" fill="#004EA2" d="M60.399,24.478c-0.467-0.235-0.354-0.457-0.242-0.847
					c-0.242-0.735-0.847-1.222-1.078-1.925c-0.101-1.375-0.477-1.788,0.445-2.703c0.94,0.154,4.277,0.891,4.008,2.721
					C62.993,22.957,61.531,24.031,60.399,24.478L60.399,24.478z"/>
				<path fill-rule="evenodd" clip-rule="evenodd" fill="#004EA2" d="M37.702,74.021c-1.424,1.067-4.26,0.388-4.702-1.536
					c-0.312-1.359-2.037-5.187-2.774-7.253c-0.371-0.644-0.802-1.14-0.563-1.871c0.478-0.141,1.042,0.368,1.469,0.761
					c0.215-0.062,0.548-0.596,0.522-0.958c-0.107-1.507-0.163-3.156-0.433-4.646c-0.391-0.313-0.781-0.627-1.148-0.947
					c-0.255,0.764-1.117,3.261-2.016,1.969c0.194-1.018,0.27-2.7-0.333-3.69c-0.76-0.775-1.829-1.278-2.185-2.134
					c0.099-1.209,1.938-1.569,3.042-1.128c0.881,0.039,0.797-1.61,1.899,1.076c0.039,0.442,0.479,0.702,0.975,0.933
					c0.074-0.1,0.149-0.2,0.224-0.3c-0.069-1.16-0.142-2.423-0.09-3.657c-1.128-1.057-2.074-1.934-2.768-3.234
					c-0.049-1.27,1.365-2.062,2.602-2.49c0.379-0.695,0.361-1.287,0.298-2.163c0.073-0.281,0.073-0.281,0.357-0.728
					c0.433,0.015,0.798,0.154,1.292,0.424c1.042,1.25-0.889,5.27,1.088,5.505c0.371-0.68-0.204-1.354-0.531-1.894
					c0.074-0.981,1.538-2.269,2.584-2.681c1.575-0.203,1.512,0.685,1.573,2.041c0.081,0.185,0.16,0.368,0.249,0.537
					c2.054,1.381,2.054,1.381,4.905,3.137c0.886,0.763,0.982,2.027,1.072,2.409c0.057,0.242,0.47,2.041-0.457,2.197
					c-2.335-1.454-4.663-3.104-6.931-4.422c-0.025,0.046-0.035,0.101-0.037,0.14c1.024,0.88,2.44,3.356,2.531,4.77
					c-0.506,0.927-1.497,1.349-2.419,1.127c-0.173-0.235-0.118-0.445-0.163-0.73c-0.715-1.152-2.71-2.2-3.727-2.835
					c-0.351,0.791,0.521,3.051,0.795,3.982c0.059,0.554,0.118,1.106,0.185,1.645c0.704,0.806,1.426,1.54,2.208,2.348
					c0.291,0.459,0.597,0.927,0.903,1.395c-0.025,0.047-0.042,0.077-0.059,0.108c0.361,0.698,1.17,2.743-0.187,2.806
					c-0.139-0.076-0.263-0.144-0.378-0.227c-0.466-1.057-1.332-2.189-2.248-2.79c-0.267,1.078,0.154,2.221-0.332,3.107
					c-0.297,0.543-0.881,0.815-1.296,0.988c-0.44,0.184-0.719,0.279-0.748,0.443c0.4,0.479,0.858,0.932,1.24,1.438
					c1.52,2.013,2.811,3.999,4.546,5.928C37.864,73.467,37.843,73.616,37.702,74.021L37.702,74.021z"/>
				<path fill-rule="evenodd" clip-rule="evenodd" fill="#004EA2" d="M27.727,65.292c-0.576,0.026-0.89-0.646-1.344-0.954
					c-1.593-0.388-2.788-0.659-3.372-2.199c0.061-0.148,0.136-0.287,0.212-0.426c0.808-0.342,2.329-0.595,3.356-0.676
					C28.551,61.391,27.982,63.867,27.727,65.292L27.727,65.292z"/>
				<path fill-rule="evenodd" clip-rule="evenodd" fill="#004EA2" d="M23.428,60.822c-0.325,0.264-0.394,0.206-0.551,0.2
					c-0.223-0.362-0.316-0.633-0.681-0.772c-1.742,0.032-3.596-1.199-3.343-2.986c0.305-0.375,0.651-0.166,1.323,0
					c1.454-0.35,3.605-1.353,3.792,0.998C23.842,59.124,23.615,60.002,23.428,60.822L23.428,60.822z"/>
				<path fill-rule="evenodd" clip-rule="evenodd" fill="#004EA2" d="M122.887,56.453c-0.746-1.395,1.203-2.966,2.089-3.502
					c1.279,0.272,1.285,2.331,0.431,3.313C124.204,57.085,124.065,57.244,122.887,56.453L122.887,56.453z"/>
				<path fill-rule="evenodd" clip-rule="evenodd" fill="#004EA2" d="M120.665,70.357c-0.018-0.061-0.021-0.11-0.035-0.147
					c-1.462-1.27-2.646-2.696-3.448-4.35c0.051-0.166,0.051-0.166,0.2-0.339c1.144,0.294,2.059,1.416,3.365,1.199
					c0.676-0.509,1.244-0.947,1.691-1.515c-1.448-1.259-3.128-1.017-4.598-1.688c-0.982-0.854-1.804-3.317-1.35-4.322
					c1.177-1.193,0.895-0.412,2.249,0.766c1.782,1.223,4.159,1.843,6.261,2.645c0.542,0.074,0.542,0.074,0.786,0.169
					c1.301-0.664,1.703-0.617,2.933,0.194c0.6,0.195,0.6,0.195,2.478,0.639c0.144-0.085,0.287-0.17,0.444-0.243
					c-1.992-1.546-4.859-1.52-7.224-1.966c-0.896-0.499-1.315-1.144-1.589-1.848c-0.355-0.263-2.439-1.701-0.883-1.561
					c0.733,0.311,1.508,0.331,2.315,0.637c2.225,0.419,4.535,1.168,6.798,1.759c0.208-0.239,0.243-0.441,0.262-0.543
					c0.304-0.296,0.509-0.397,0.822-0.544c-0.361-0.174-0.418-0.271-0.669-0.115c-1.23-0.463-2.361-0.047-2.269-1.576
					c-0.934,0.564-1.982,0.563-2.779-0.13c-0.379-1.146,0.865-2.443,1.313-3.174c0.016-0.125,0.398-0.727,0.755-1.512
					c0.351-1.048,0.489-2.468,1.546-2.691c0.875,0.201,1.219,0.289,0.952,1.481c0.099,0.691,0.194,2.011,0.069,2.604
					c-0.201,0.954-0.549,2.319-1.431,3.092c0.635,0.155,1.665,0.258,1.871-0.542c-0.308-1.015,0.674-1.258,1.363-1.031
					c0.311,0.34,0.311,0.34,0.773,0.72c0.15-0.173,0.137-0.185,0.149-0.36c-0.363-0.735-0.128-0.765,0.462-1.067
					c-0.41-0.87,0.013-1.785,0.732-2.022c2.329,1.372,2.329,1.372,3.48,1.952c1.299-0.152,3.886-1.519,4.65-0.037
					c-0.059,0.765-0.505,1.707-1.259,2.333c-0.438,0.155-0.884,0.212-1.264,0.488c0.119,0.104,0.228,0.221,0.335,0.338
					c1.162,0.381,1.979,0.273,1.293,1.894c0.354,1.147,0.728,1.309-0.638,2.128c-1.632,0.563-3.387,1.16-5.086,1.666
					c-0.06,0.041-0.119,0.083-0.165,0.136c0.111,0.167,0.223,0.334,0.323,0.514c-0.409,0.578-1.002,1.206-1.609,1.797
					c-1.156,0.23-1.746-0.352-2.589-0.991c-1.418-0.463-2.659-0.913-4.081-1.263c-0.175,0.175-0.377,0.326-0.517,0.647
					c0.467,0.43,0.936,0.883,1.404,1.337c0.183,0.836-0.778,1.727-1.635,1.961c-0.593-0.445-0.972-0.681-1.583-0.862
					c-0.297,0.207-0.595,0.415-0.903,0.637C124.203,68.676,122.359,71.574,120.665,70.357L120.665,70.357z M135.62,61.016
					c-0.017-0.062-0.032-0.098-0.047-0.134c0.811-0.718,1.053-0.997,0.214-1.587c-0.233,0.054-0.675,0.16-0.684-0.127
					c-0.01-0.309,1.478-0.652,1.705-0.78c0.425,0.369,1.048,1.074,1.099,1.795C137.318,60.859,136.542,61.001,135.62,61.016
					L135.62,61.016z"/>
</svg>